<?xml version="1.0" encoding="utf-8"?>
<!-- Generator: Adobe Illustrator 16.0.0, SVG Export Plug-In . SVG Version: 6.00 Build 0)  -->
<!DOCTYPE svg PUBLIC "-//W3C//DTD SVG 1.1//EN" "http://www.w3.org/Graphics/SVG/1.1/DTD/svg11.dtd">
<svg version="1.1" id="Layer_1" xmlns="http://www.w3.org/2000/svg" xmlns:xlink="http://www.w3.org/1999/xlink" x="0px" y="0px"
	 width="83px" height="28px" viewBox="0 0 83 28" enable-background="new 0 0 83 28" xml:space="preserve">
<g>
	<g>
		<rect y="1" fill-rule="evenodd" clip-rule="evenodd" fill="#D8213A" width="26" height="13"/>
		<rect y="14" fill-rule="evenodd" clip-rule="evenodd" width="26" height="13"/>
		<rect x="4" y="13" fill-rule="evenodd" clip-rule="evenodd" fill="#FFFFFF" width="18" height="2"/>
	</g>
	<path fill="#1C1C1C" d="M41.926,7.806c0.897,0.453,1.414,1.293,1.414,2.25c0,1.651-1.224,2.93-3.565,2.93h-6.762V3h6.723
		c1.878,0,3.237,1.118,3.237,2.81C42.973,6.674,42.591,7.301,41.926,7.806z M39.844,7.113c0.857,0,1.252-0.585,1.252-1.211
		c0-0.691-0.449-1.251-1.36-1.251h-4.845v2.463H39.844z M41.38,10.057c0-0.838-0.448-1.292-1.415-1.292h-5.075v2.571h4.845
		C40.864,11.336,41.38,10.856,41.38,10.057z"/>
	<path fill="#1C1C1C" d="M50.972,9.311h-3.048v3.676h-1.891V3h6.558c2.177,0,3.523,1.303,3.523,3.182
		c0,1.783-1.32,2.849-2.925,3.076l3.034,3.728h-2.367L50.972,9.311z M52.387,7.646c1.184,0,1.851-0.599,1.851-1.464
		c0-0.945-0.586-1.532-1.646-1.532h-4.667v2.996H52.387z"/>
	<path fill="#1C1C1C" d="M63.457,3c3.211,0,5.306,1.983,5.306,4.979c0,2.771-2.232,5.007-5.021,5.007h-5.633V3H63.457z
		 M63.457,11.309c2.218,0,3.347-1.425,3.347-3.33c0-1.864-1.129-3.302-3.347-3.302H60v6.632H63.457z"/>
	<rect fill="none" width="83" height="28"/>
	<g>
		<g>
			<g>
				<path fill="#1C1C1C" d="M34.281,18.794c0-0.731,0.591-0.978,1.195-0.978c0.628,0,1.243,0.172,1.834,0.482V17.12
					c-0.409-0.223-1.086-0.408-1.871-0.408c-1.592,0-2.511,1.004-2.511,2.207c0,2.466,3.465,2.255,3.465,3.98
					c0,0.792-0.688,1.077-1.424,1.077c-0.725,0-1.329-0.271-1.764-0.569L32.7,24.398c0.556,0.409,1.375,0.682,2.294,0.682
					c1.592,0,2.739-0.867,2.739-2.294C37.733,20.219,34.281,20.407,34.281,18.794z M41.479,18.943c-1.678,0-2.788,1.314-2.788,3.063
					c0,1.747,1.121,3.073,2.788,3.073c1.665,0,2.774-1.327,2.774-3.073C44.254,20.257,43.145,18.943,41.479,18.943z M41.479,24.026
					c-0.955,0-1.497-0.842-1.497-2.02c0-1.166,0.542-2.01,1.497-2.01c0.953,0,1.483,0.844,1.483,2.01
					C42.963,23.184,42.432,24.026,41.479,24.026z M50.308,19.65l0.254-0.942c-0.072-0.012-0.228-0.038-0.362-0.038
					c-0.64,0-1.014,0.199-1.315,0.508c-0.049,0.038-0.072,0.051-0.133,0.014c-0.243-0.125-0.616-0.249-1.123-0.249
					c-1.448,0-2.244,1.029-2.244,2.146c0,0.782,0.338,1.438,0.93,1.797c-0.483,0.373-0.664,0.792-0.664,1.128
					c0,0.297,0.146,0.583,0.386,0.72c-0.639,0.298-1.038,0.818-1.038,1.449c0,1.03,0.978,1.711,2.607,1.711
					c1.882,0,2.919-0.819,2.919-1.895c0-2.196-3.753-1.205-3.753-2.294c0-0.148,0.049-0.298,0.206-0.509
					c0.193,0.075,0.446,0.111,0.711,0.111c1.364,0,2.306-0.854,2.306-2.158c0-0.532-0.182-1.041-0.544-1.424
					c0.133-0.086,0.326-0.125,0.459-0.125C50.03,19.6,50.175,19.625,50.308,19.65z M49.306,26.135c0,0.471-0.58,0.831-1.555,0.831
					c-0.979,0-1.618-0.384-1.618-1.005c0-0.446,0.35-0.732,0.567-0.881C47.568,25.404,49.306,25.216,49.306,26.135z M47.689,22.304
					c-0.7,0-1.097-0.521-1.097-1.19c0-0.745,0.446-1.166,1.074-1.166c0.686,0,1.121,0.533,1.121,1.178
					C48.788,21.894,48.304,22.304,47.689,22.304z M53.811,18.943c-1.546,0-2.499,1.291-2.499,3.063h-0.11
					c0,1.624,0.967,3.073,2.957,3.073c0.677,0,1.389-0.173,1.943-0.544l-0.374-0.881c-0.409,0.236-0.869,0.396-1.436,0.396
					c-1.037,0-1.677-0.706-1.701-1.71h3.668v-0.31C56.26,20.132,55.367,18.943,53.811,18.943z M52.578,21.422
					c0.014-0.792,0.46-1.475,1.219-1.475c0.809,0,1.16,0.731,1.184,1.475H52.578z M59.107,23.916c-0.277,0-0.422-0.125-0.422-0.558
					V15.9h-1.253v7.816c0,0.855,0.434,1.327,1.314,1.327c0.301,0,0.675-0.063,0.976-0.199l-0.252-1.004
					C59.36,23.877,59.191,23.916,59.107,23.916z M62.6,18.943c-1.546,0-2.499,1.291-2.499,3.063c0,1.624,0.856,3.073,2.847,3.073
					c0.677,0,1.389-0.173,1.944-0.544l-0.375-0.881c-0.41,0.236-0.869,0.396-1.436,0.396c-1.038,0-1.677-0.706-1.701-1.71h3.669
					v-0.31C65.05,20.132,64.155,18.943,62.6,18.943z M61.368,21.422c0.013-0.792,0.459-1.475,1.219-1.475
					c0.81,0,1.16,0.731,1.184,1.475H61.368z M70.722,21.04c0-1.427-0.795-2.097-2.208-2.097c-0.747,0-1.471,0.187-2.147,0.583
					l0.434,0.855c0.398-0.237,0.917-0.433,1.521-0.433c0.675,0,1.146,0.321,1.146,1.091v0.247l-1.027,0.036
					c-0.579,0.026-1.062,0.1-1.459,0.312c-0.58,0.297-0.953,0.806-0.953,1.586c0,1.127,0.784,1.859,1.857,1.859
					c0.712,0,1.244-0.31,1.667-0.718l0.206,0.595h1.072c-0.084-0.311-0.108-0.817-0.108-1.662V21.04z M69.468,23.493
					c-0.23,0.211-0.665,0.557-1.244,0.557c-0.568,0-0.93-0.346-0.93-0.904c0-0.334,0.133-0.596,0.398-0.744
					c0.218-0.125,0.507-0.186,0.918-0.199l0.856-0.036V23.493z M73.233,20.593c0-0.46,0.397-0.621,0.906-0.621
					c0.59,0,1.085,0.161,1.532,0.36v-1.103c-0.434-0.173-0.978-0.286-1.581-0.286c-1.316,0-2.088,0.732-2.088,1.725
					c0,1.946,2.678,1.562,2.678,2.651c0,0.522-0.469,0.732-1.074,0.732c-0.602,0-1.121-0.209-1.52-0.47l-0.386,0.955
					c0.434,0.272,1.121,0.544,1.966,0.544c1.208,0,2.256-0.533,2.256-1.785C75.924,21.262,73.233,21.659,73.233,20.593z
					 M81.705,22.03c0-1.898-0.895-3.087-2.45-3.087c-1.545,0-2.499,1.291-2.499,3.063c0,1.624,0.856,3.073,2.846,3.073
					c0.678,0,1.39-0.173,1.943-0.544l-0.374-0.881c-0.409,0.236-0.869,0.396-1.436,0.396c-1.038,0-1.678-0.706-1.701-1.71h3.669
					V22.03z M78.022,21.422c0.014-0.792,0.459-1.475,1.22-1.475c0.81,0,1.16,0.731,1.183,1.475H78.022z"/>
			</g>
		</g>
	</g>
</g>
</svg>
